
            <svg xmlns="http://www.w3.org/2000/svg" xmlns:cc="http://creativecommons.org/ns#" xmlns:rdf="http://www.w3.org/1999/02/22-rdf-syntax-ns#" version="1.1" width="255.28134155273438" height="571.0314331054688">
              <defs>
                <style type="text/css">svg {
            background-color: #fff; }
          
          .root text,
          .root tspan {
            font: 12px Arial; }
          
          .root path {
            fill-opacity: 0;
            stroke-width: 2px;
            stroke: #000; }
          
          .root circle {
            fill: #6b6659;
            stroke-width: 2px;
            stroke: #000; }
          
          .anchor text, .any-character text {
            fill: #fff; }
          
          .anchor rect, .any-character rect {
            fill: #6b6659; }
          
          .escape text, .charset-escape text, .literal text {
            fill: #000; }
          
          .escape rect, .charset-escape rect {
            fill: #bada55; }
          
          .literal rect {
            fill: #dae9e5; }
          
          .charset .charset-box {
            fill: #cbcbba; }
          
          .subexp .subexp-label tspan,
          .charset .charset-label tspan,
          .match-fragment .repeat-label tspan {
            font-size: 10px; }
          
          .repeat-label {
            cursor: help; }
          
          .subexp .subexp-label tspan,
          .charset .charset-label tspan {
            dominant-baseline: text-after-edge; }
          
          .subexp .subexp-box {
            stroke: #908c83;
            stroke-dasharray: 6,2;
            stroke-width: 2px;
            fill-opacity: 0; }
          
          .quote {
            fill: #908c83; }
          </style>
              </defs>
              <metadata>
                <rdf:rdf>
                  <cc:license rdf:about="http://creativecommons.org/licenses/by/3.0/">
                    <cc:permits rdf:resource="http://creativecommons.org/ns#Reproduction"></cc:permits>
                    <cc:permits rdf:resource="http://creativecommons.org/ns#Distribution"></cc:permits>
                    <cc:requires rdf:resource="http://creativecommons.org/ns#Notice"></cc:requires>
                    <cc:requires rdf:resource="http://creativecommons.org/ns#Attribution"></cc:requires>
                    <cc:permits rdf:resource="http://creativecommons.org/ns#DerivativeWorks"></cc:permits>
                  </cc:license>
                </rdf:rdf>
              </metadata>
            <desc>Created with Snap</desc><g class="root" transform="matrix(1,0,0,1,15,10)"><g class="regexp" transform="matrix(1,0,0,1,10,0)"><path d="M10,66.57817479553222q0,-10 10,-10M195.28134155273438,66.57817479553222q0,-10 -10,-10M10,159.2500747955322q0,-10 10,-10M195.28134155273438,159.2500747955322q0,-10 -10,-10M10,237.6250747955322q0,-10 10,-10M195.28134155273438,237.6250747955322q0,-10 -10,-10M10,296.0000747955322q0,10 10,10M195.28134155273438,296.0000747955322q0,10 -10,10M10,374.37517479553225q0,10 10,10M195.28134155273438,374.37517479553225q0,10 -10,10M10,422.265775q0,10 10,10M195.28134155273438,422.265775q0,10 -10,10M10,450.859575q0,10 10,10M195.28134155273438,450.859575q0,10 -10,10M10,509.937675q0,10 10,10M195.28134155273438,509.937675q0,10 -10,10M0,275.5157165527344q10,0 10,-10V66.57817479553222M205.28134155273438,275.5157165527344q-10,0 -10,-10V66.57817479553222M0,275.5157165527344q10,0 10,10V509.937675M205.28134155273438,275.5157165527344q-10,0 -10,10V509.937675"></path><g transform="matrix(1,0,0,1,20,0)" class="regexp-matches"><path d="M0,56.57817479553223h17.6563M147.62505,56.57817479553223H165.28134155273438M0,149.2500747955322h23.3125M141.9688,149.2500747955322H165.28134155273438M0,227.6250747955322h22.9844M142.29695,227.6250747955322H165.28134155273438M0,306.0000747955322h21.6563M143.6251,306.0000747955322H165.28134155273438M0,384.37517479553225h0M165.28134577636717,384.37517479553225H165.28134155273438M0,432.265775h60.3125M104.96875,432.265775H165.28134155273438M0,460.859575h61.3125M103.96875,460.859575H165.28134155273438M0,519.937675h42.9844M122.29695000000001,519.937675H165.28134155273438"></path><g class="match" transform="matrix(1,0,0,1,17.6563,0)"><path d="M36.65625,56.57817479553223H46.6563M83.31255,56.57817479553223H93.3125"></path><g class="match-fragment charset" transform="matrix(1,0,0,1,0,14.2969)"><rect rx="3" ry="3" class="charset-box" transform="matrix(1,0,0,1,0,11.1875)" width="36.65625" height="62.18754959106445"></rect><text x="0" y="0" class="charset-label" transform="matrix(1,0,0,1,0,11.1875)"><tspan>One of:</tspan></text><g transform="matrix(1,0,0,1,5,16.1875)"><g class="literal" transform="matrix(1,0,0,1,1,0)"><g class="label"><rect width="24.65625" height="23.59375" rx="3" ry="3"></rect><text x="0" y="0" transform="matrix(1,0,0,1,5,16.7969)"><tspan class="quote">“</tspan><tspan>L</tspan><tspan class="quote">”</tspan></text></g></g><g class="literal" transform="matrix(1,0,0,1,0,28.5938)"><g class="label"><rect width="26.65625" height="23.59375" rx="3" ry="3"></rect><text x="0" y="0" transform="matrix(1,0,0,1,5,16.7969)"><tspan class="quote">“</tspan><tspan>R</tspan><tspan class="quote">”</tspan></text></g></g></g></g><g class="match-fragment charset" transform="matrix(1,0,0,1,46.6563,14.2969)"><rect rx="3" ry="3" class="charset-box" transform="matrix(1,0,0,1,0,11.1875)" width="36.65625" height="62.18754959106445"></rect><text x="0" y="0" class="charset-label" transform="matrix(1,0,0,1,0,11.1875)"><tspan>One of:</tspan></text><g transform="matrix(1,0,0,1,5,16.1875)"><g class="literal" transform="matrix(1,0,0,1,0.3281,0)"><g class="label"><rect width="26" height="23.59375" rx="3" ry="3"></rect><text x="0" y="0" transform="matrix(1,0,0,1,5,16.7969)"><tspan class="quote">“</tspan><tspan>S</tspan><tspan class="quote">”</tspan></text></g></g><g class="literal" transform="matrix(1,0,0,1,0,28.5938)"><g class="label"><rect width="26.65625" height="23.59375" rx="3" ry="3"></rect><text x="0" y="0" transform="matrix(1,0,0,1,5,16.7969)"><tspan class="quote">“</tspan><tspan>H</tspan><tspan class="quote">”</tspan></text></g></g></g></g><g class="match-fragment charset" transform="matrix(1,0,0,1,93.3125,0)"><rect rx="3" ry="3" class="charset-box" transform="matrix(1,0,0,1,0,11.1875)" width="36.65625" height="90.78125"></rect><text x="0" y="0" class="charset-label" transform="matrix(1,0,0,1,0,11.1875)"><tspan>One of:</tspan></text><g transform="matrix(1,0,0,1,5,16.1875)"><g class="literal" transform="matrix(1,0,0,1,0,0)"><g class="label"><rect width="26.65625" height="23.59375" rx="3" ry="3"></rect><text x="0" y="0" transform="matrix(1,0,0,1,5,16.7969)"><tspan class="quote">“</tspan><tspan>R</tspan><tspan class="quote">”</tspan></text></g></g><g class="literal" transform="matrix(1,0,0,1,0.3281,28.5938)"><g class="label"><rect width="26" height="23.59375" rx="3" ry="3"></rect><text x="0" y="0" transform="matrix(1,0,0,1,5,16.7969)"><tspan class="quote">“</tspan><tspan>P</tspan><tspan class="quote">”</tspan></text></g></g><g class="literal" transform="matrix(1,0,0,1,0.3281,57.1875)"><g class="label"><rect width="26" height="23.59375" rx="3" ry="3"></rect><text x="0" y="0" transform="matrix(1,0,0,1,5,16.7969)"><tspan class="quote">“</tspan><tspan>Y</tspan><tspan class="quote">”</tspan></text></g></g></g></g></g><g class="match" transform="matrix(1,0,0,1,23.3125,106.9688)"><path d="M36.65625,42.28127479553223H46.6563M82.6563,42.28127479553223H92.6563"></path><g class="match-fragment charset" transform="matrix(1,0,0,1,0,0)"><rect rx="3" ry="3" class="charset-box" transform="matrix(1,0,0,1,0,11.1875)" width="36.65625" height="62.18754959106445"></rect><text x="0" y="0" class="charset-label" transform="matrix(1,0,0,1,0,11.1875)"><tspan>One of:</tspan></text><g transform="matrix(1,0,0,1,5,16.1875)"><g class="literal" transform="matrix(1,0,0,1,1,0)"><g class="label"><rect width="24.65625" height="23.59375" rx="3" ry="3"></rect><text x="0" y="0" transform="matrix(1,0,0,1,5,16.7969)"><tspan class="quote">“</tspan><tspan>L</tspan><tspan class="quote">”</tspan></text></g></g><g class="literal" transform="matrix(1,0,0,1,0,28.5938)"><g class="label"><rect width="26.65625" height="23.59375" rx="3" ry="3"></rect><text x="0" y="0" transform="matrix(1,0,0,1,5,16.7969)"><tspan class="quote">“</tspan><tspan>R</tspan><tspan class="quote">”</tspan></text></g></g></g></g><g class="match-fragment charset" transform="matrix(1,0,0,1,46.6563,0)"><rect rx="3" ry="3" class="charset-box" transform="matrix(1,0,0,1,0,11.1875)" width="36" height="62.18754959106445"></rect><text x="0" y="0" class="charset-label" transform="matrix(1,0,0,1,0,11.1875)"><tspan>One of:</tspan></text><g transform="matrix(1,0,0,1,5,16.1875)"><g class="literal" transform="matrix(1,0,0,1,0,0)"><g class="label"><rect width="26" height="23.59375" rx="3" ry="3"></rect><text x="0" y="0" transform="matrix(1,0,0,1,5,16.7969)"><tspan class="quote">“</tspan><tspan>K</tspan><tspan class="quote">”</tspan></text></g></g><g class="literal" transform="matrix(1,0,0,1,0,28.5938)"><g class="label"><rect width="26" height="23.59375" rx="3" ry="3"></rect><text x="0" y="0" transform="matrix(1,0,0,1,5,16.7969)"><tspan class="quote">“</tspan><tspan>E</tspan><tspan class="quote">”</tspan></text></g></g></g></g><g class="match-fragment literal" transform="matrix(1,0,0,1,92.6563,30.4844)"><g class="label"><rect width="26" height="23.59375" rx="3" ry="3"></rect><text x="0" y="0" transform="matrix(1,0,0,1,5,16.7969)"><tspan class="quote">“</tspan><tspan>P</tspan><tspan class="quote">”</tspan></text></g></g></g><g class="match" transform="matrix(1,0,0,1,22.9844,185.3438)"><path d="M36.65625,42.28127479553223H46.6563M72.6563,42.281275H82.6563"></path><g class="match-fragment charset" transform="matrix(1,0,0,1,0,0)"><rect rx="3" ry="3" class="charset-box" transform="matrix(1,0,0,1,0,11.1875)" width="36.65625" height="62.18754959106445"></rect><text x="0" y="0" class="charset-label" transform="matrix(1,0,0,1,0,11.1875)"><tspan>One of:</tspan></text><g transform="matrix(1,0,0,1,5,16.1875)"><g class="literal" transform="matrix(1,0,0,1,1,0)"><g class="label"><rect width="24.65625" height="23.59375" rx="3" ry="3"></rect><text x="0" y="0" transform="matrix(1,0,0,1,5,16.7969)"><tspan class="quote">“</tspan><tspan>L</tspan><tspan class="quote">”</tspan></text></g></g><g class="literal" transform="matrix(1,0,0,1,0,28.5938)"><g class="label"><rect width="26.65625" height="23.59375" rx="3" ry="3"></rect><text x="0" y="0" transform="matrix(1,0,0,1,5,16.7969)"><tspan class="quote">“</tspan><tspan>R</tspan><tspan class="quote">”</tspan></text></g></g></g></g><g class="match-fragment literal" transform="matrix(1,0,0,1,46.6563,30.4844)"><g class="label"><rect width="26" height="23.59375" rx="3" ry="3"></rect><text x="0" y="0" transform="matrix(1,0,0,1,5,16.7969)"><tspan class="quote">“</tspan><tspan>A</tspan><tspan class="quote">”</tspan></text></g></g><g class="match-fragment charset" transform="matrix(1,0,0,1,82.6563,0)"><rect rx="3" ry="3" class="charset-box" transform="matrix(1,0,0,1,0,11.1875)" width="36.65625" height="62.18754959106445"></rect><text x="0" y="0" class="charset-label" transform="matrix(1,0,0,1,0,11.1875)"><tspan>One of:</tspan></text><g transform="matrix(1,0,0,1,5,16.1875)"><g class="literal" transform="matrix(1,0,0,1,0,0)"><g class="label"><rect width="26.65625" height="23.59375" rx="3" ry="3"></rect><text x="0" y="0" transform="matrix(1,0,0,1,5,16.7969)"><tspan class="quote">“</tspan><tspan>R</tspan><tspan class="quote">”</tspan></text></g></g><g class="literal" transform="matrix(1,0,0,1,0.3281,28.5938)"><g class="label"><rect width="26" height="23.59375" rx="3" ry="3"></rect><text x="0" y="0" transform="matrix(1,0,0,1,5,16.7969)"><tspan class="quote">“</tspan><tspan>P</tspan><tspan class="quote">”</tspan></text></g></g></g></g></g><g class="match" transform="matrix(1,0,0,1,21.6563,263.7188)"><path d="M36.65625,42.28127479553223H46.6563M75.9688,42.281275H85.9688"></path><g class="match-fragment charset" transform="matrix(1,0,0,1,0,0)"><rect rx="3" ry="3" class="charset-box" transform="matrix(1,0,0,1,0,11.1875)" width="36.65625" height="62.18754959106445"></rect><text x="0" y="0" class="charset-label" transform="matrix(1,0,0,1,0,11.1875)"><tspan>One of:</tspan></text><g transform="matrix(1,0,0,1,5,16.1875)"><g class="literal" transform="matrix(1,0,0,1,1,0)"><g class="label"><rect width="24.65625" height="23.59375" rx="3" ry="3"></rect><text x="0" y="0" transform="matrix(1,0,0,1,5,16.7969)"><tspan class="quote">“</tspan><tspan>L</tspan><tspan class="quote">”</tspan></text></g></g><g class="literal" transform="matrix(1,0,0,1,0,28.5938)"><g class="label"><rect width="26.65625" height="23.59375" rx="3" ry="3"></rect><text x="0" y="0" transform="matrix(1,0,0,1,5,16.7969)"><tspan class="quote">“</tspan><tspan>R</tspan><tspan class="quote">”</tspan></text></g></g></g></g><g class="match-fragment literal" transform="matrix(1,0,0,1,46.6563,30.4844)"><g class="label"><rect width="29.3125" height="23.59375" rx="3" ry="3"></rect><text x="0" y="0" transform="matrix(1,0,0,1,5,16.7969)"><tspan class="quote">“</tspan><tspan>W</tspan><tspan class="quote">”</tspan></text></g></g><g class="match-fragment charset" transform="matrix(1,0,0,1,85.9688,0)"><rect rx="3" ry="3" class="charset-box" transform="matrix(1,0,0,1,0,11.1875)" width="36" height="62.18754959106445"></rect><text x="0" y="0" class="charset-label" transform="matrix(1,0,0,1,0,11.1875)"><tspan>One of:</tspan></text><g transform="matrix(1,0,0,1,5,16.1875)"><g class="literal" transform="matrix(1,0,0,1,0,0)"><g class="label"><rect width="26" height="23.59375" rx="3" ry="3"></rect><text x="0" y="0" transform="matrix(1,0,0,1,5,16.7969)"><tspan class="quote">“</tspan><tspan>P</tspan><tspan class="quote">”</tspan></text></g></g><g class="literal" transform="matrix(1,0,0,1,0,28.5938)"><g class="label"><rect width="26" height="23.59375" rx="3" ry="3"></rect><text x="0" y="0" transform="matrix(1,0,0,1,5,16.7969)"><tspan class="quote">“</tspan><tspan>Y</tspan><tspan class="quote">”</tspan></text></g></g></g></g></g><g class="match" transform="matrix(1,0,0,1,0,342.0939)"><path d="M36.65625,42.28127479553223H46.6563M81.9688,42.281275H91.9688"></path><g class="match-fragment charset" transform="matrix(1,0,0,1,0,0)"><rect rx="3" ry="3" class="charset-box" transform="matrix(1,0,0,1,0,11.1875)" width="36.65625" height="62.18754959106445"></rect><text x="0" y="0" class="charset-label" transform="matrix(1,0,0,1,0,11.1875)"><tspan>One of:</tspan></text><g transform="matrix(1,0,0,1,5,16.1875)"><g class="literal" transform="matrix(1,0,0,1,1,0)"><g class="label"><rect width="24.65625" height="23.59375" rx="3" ry="3"></rect><text x="0" y="0" transform="matrix(1,0,0,1,5,16.7969)"><tspan class="quote">“</tspan><tspan>L</tspan><tspan class="quote">”</tspan></text></g></g><g class="literal" transform="matrix(1,0,0,1,0,28.5938)"><g class="label"><rect width="26.65625" height="23.59375" rx="3" ry="3"></rect><text x="0" y="0" transform="matrix(1,0,0,1,5,16.7969)"><tspan class="quote">“</tspan><tspan>R</tspan><tspan class="quote">”</tspan></text></g></g></g></g><g class="match-fragment charset" transform="matrix(1,0,0,1,46.6563,14.2969)"><rect rx="3" ry="3" class="charset-box" transform="matrix(1,0,0,1,0,11.1875)" width="35.3125" height="33.59375"></rect><text x="0" y="0" class="charset-label" transform="matrix(1,0,0,1,0,11.1875)"><tspan>One of:</tspan></text><g transform="matrix(1,0,0,1,5,16.1875)"><g class="literal" transform="matrix(1,0,0,1,0,0)"><g class="label"><rect width="25.3125" height="23.59375" rx="3" ry="3"></rect><text x="0" y="0" transform="matrix(1,0,0,1,5,16.7969)"><tspan class="quote">“</tspan><tspan>F</tspan><tspan class="quote">”</tspan></text></g></g></g></g><g class="match-fragment charset" transform="matrix(1,0,0,1,91.9688,14.2969)"><rect rx="3" ry="3" class="charset-box" transform="matrix(1,0,0,1,0,11.1875)" width="73.31254959106445" height="33.59375"></rect><text x="0" y="0" class="charset-label" transform="matrix(1,0,0,1,0,11.1875)"><tspan>One of:</tspan></text><g transform="matrix(1,0,0,1,5,16.1875)"><g class="charset-range" transform="matrix(1,0,0,1,0,0)"><text x="0" y="0" transform="matrix(1,0,0,1,29.6563,16.1875)">-</text><g class="literal" transform="matrix(1,0,0,1,0,0)"><g class="label"><rect width="24.65625" height="23.59375" rx="3" ry="3"></rect><text x="0" y="0" transform="matrix(1,0,0,1,5,16.7969)"><tspan class="quote">“</tspan><tspan>1</tspan><tspan class="quote">”</tspan></text></g></g><g class="literal" transform="matrix(1,0,0,1,38.6563,0)"><g class="label"><rect width="24.65625" height="23.59375" rx="3" ry="3"></rect><text x="0" y="0" transform="matrix(1,0,0,1,5,16.7969)"><tspan class="quote">“</tspan><tspan>5</tspan><tspan class="quote">”</tspan></text></g></g></g></g></g></g><g class="match match-fragment literal" transform="matrix(1,0,0,1,60.3125,420.4689)"><g class="label"><rect width="44.65625" height="23.59375" rx="3" ry="3"></rect><text x="0" y="0" transform="matrix(1,0,0,1,5,16.7969)"><tspan class="quote">“</tspan><tspan>WST</tspan><tspan class="quote">”</tspan></text></g></g><g class="match match-fragment literal" transform="matrix(1,0,0,1,61.3125,449.0627)"><g class="label"><rect width="42.65625" height="23.59375" rx="3" ry="3"></rect><text x="0" y="0" transform="matrix(1,0,0,1,5,16.7969)"><tspan class="quote">“</tspan><tspan>NKY</tspan><tspan class="quote">”</tspan></text></g></g><g class="match" transform="matrix(1,0,0,1,42.9844,477.6564)"><path d="M34.65625,42.281275H44.6563"></path><g class="match-fragment literal" transform="matrix(1,0,0,1,0,30.4844)"><g class="label"><rect width="34.65625" height="23.59375" rx="3" ry="3"></rect><text x="0" y="0" transform="matrix(1,0,0,1,5,16.7969)"><tspan class="quote">“</tspan><tspan>NK</tspan><tspan class="quote">”</tspan></text></g></g><g class="match-fragment charset" transform="matrix(1,0,0,1,44.6563,0)"><rect rx="3" ry="3" class="charset-box" transform="matrix(1,0,0,1,0,11.1875)" width="34.65625" height="62.18754959106445"></rect><text x="0" y="0" class="charset-label" transform="matrix(1,0,0,1,0,11.1875)"><tspan>One of:</tspan></text><g transform="matrix(1,0,0,1,5,16.1875)"><g class="literal" transform="matrix(1,0,0,1,0,0)"><g class="label"><rect width="24.65625" height="23.59375" rx="3" ry="3"></rect><text x="0" y="0" transform="matrix(1,0,0,1,5,16.7969)"><tspan class="quote">“</tspan><tspan>1</tspan><tspan class="quote">”</tspan></text></g></g><g class="literal" transform="matrix(1,0,0,1,0,28.5938)"><g class="label"><rect width="24.65625" height="23.59375" rx="3" ry="3"></rect><text x="0" y="0" transform="matrix(1,0,0,1,5,16.7969)"><tspan class="quote">“</tspan><tspan>2</tspan><tspan class="quote">”</tspan></text></g></g></g></g></g></g></g><path d="M10,275.5157165527344H0M215.28134155273438,275.5157165527344H225.28134155273438"></path><circle cx="0" cy="275.5157165527344" r="5"></circle><circle cx="225.28134155273438" cy="275.5157165527344" r="5"></circle></g></svg>
          